<?xml version="1.0" encoding="UTF-8"?>
<svg version="1.1" xmlns="http://www.w3.org/2000/svg" width="768" height="768">
<path d="M0 0 C1.18587708 0.00021149 2.37175415 0.00042297 3.59356689 0.00064087 C22.98702821 0.0350652 41.76034148 1.00505876 60.875 4.375 C61.9568457 4.56223633 63.03869141 4.74947266 64.15332031 4.94238281 C145.65722687 19.4939591 227.90803805 63.91330201 278.875 130.375 C279.77116959 131.47427424 280.67119205 132.57041422 281.57421875 133.6640625 C323.85032687 185.06102504 350.18714158 248.53066576 358.875 314.375 C358.96293823 315.02656067 359.05087646 315.67812134 359.14147949 316.34942627 C361.03116681 330.71994545 361.27387969 345.02031624 361.25 359.5 C361.24978851 360.68587708 361.24957703 361.87175415 361.24935913 363.09356689 C361.2149348 382.48702821 360.24494124 401.26034148 356.875 420.375 C356.68776367 421.4568457 356.50052734 422.53869141 356.30761719 423.65332031 C341.7560409 505.15722687 297.33669799 587.40803805 230.875 638.375 C229.77572576 639.27116959 228.67958578 640.17119205 227.5859375 641.07421875 C176.18897496 683.35032687 112.71933424 709.68714158 46.875 718.375 C46.22343933 718.46293823 45.57187866 718.55087646 44.90057373 718.64147949 C30.53005455 720.53116681 16.22968376 720.77387969 1.75 720.75 C0.56412292 720.74978851 -0.62175415 720.74957703 -1.84356689 720.74935913 C-21.23702821 720.7149348 -40.01034148 719.74494124 -59.125 716.375 C-60.2068457 716.18776367 -61.28869141 716.00052734 -62.40332031 715.80761719 C-143.90722687 701.2560409 -226.15803805 656.83669799 -277.125 590.375 C-278.02116959 589.27572576 -278.92119205 588.17958578 -279.82421875 587.0859375 C-322.10032687 535.68897496 -348.43714158 472.21933424 -357.125 406.375 C-357.21293823 405.72343933 -357.30087646 405.07187866 -357.39147949 404.40057373 C-359.28116681 390.03005455 -359.52387969 375.72968376 -359.5 361.25 C-359.49978851 360.06412292 -359.49957703 358.87824585 -359.49935913 357.65643311 C-359.4649348 338.26297179 -358.49494124 319.48965852 -355.125 300.375 C-354.93776367 299.2931543 -354.75052734 298.21130859 -354.55761719 297.09667969 C-340.0060409 215.59277313 -295.58669799 133.34196195 -229.125 82.375 C-228.02572576 81.47883041 -226.92958578 80.57880795 -225.8359375 79.67578125 C-174.43897496 37.39967313 -110.96933424 11.06285842 -45.125 2.375 C-44.47343933 2.28706177 -43.82187866 2.19912354 -43.15057373 2.10852051 C-28.78005455 0.21883319 -14.47968376 -0.02387969 0 0 Z " fill="#1A2A49" transform="translate(383.125,23.625)"/>
<path d="M0 0 C1.18587708 0.00021149 2.37175415 0.00042297 3.59356689 0.00064087 C22.98702821 0.0350652 41.76034148 1.00505876 60.875 4.375 C61.9568457 4.56223633 63.03869141 4.74947266 64.15332031 4.94238281 C145.65722687 19.4939591 227.90803805 63.91330201 278.875 130.375 C279.77116959 131.47427424 280.67119205 132.57041422 281.57421875 133.6640625 C323.85032687 185.06102504 350.18714158 248.53066576 358.875 314.375 C358.96293823 315.02656067 359.05087646 315.67812134 359.14147949 316.34942627 C361.03116681 330.71994545 361.27387969 345.02031624 361.25 359.5 C361.24978851 360.68587708 361.24957703 361.87175415 361.24935913 363.09356689 C361.2149348 382.48702821 360.24494124 401.26034148 356.875 420.375 C356.68776367 421.4568457 356.50052734 422.53869141 356.30761719 423.65332031 C341.7560409 505.15722687 297.33669799 587.40803805 230.875 638.375 C229.77572576 639.27116959 228.67958578 640.17119205 227.5859375 641.07421875 C176.18897496 683.35032687 112.71933424 709.68714158 46.875 718.375 C46.22343933 718.46293823 45.57187866 718.55087646 44.90057373 718.64147949 C30.53005455 720.53116681 16.22968376 720.77387969 1.75 720.75 C0.56412292 720.74978851 -0.62175415 720.74957703 -1.84356689 720.74935913 C-21.23702821 720.7149348 -40.01034148 719.74494124 -59.125 716.375 C-60.2068457 716.18776367 -61.28869141 716.00052734 -62.40332031 715.80761719 C-143.90722687 701.2560409 -226.15803805 656.83669799 -277.125 590.375 C-278.02116959 589.27572576 -278.92119205 588.17958578 -279.82421875 587.0859375 C-322.10032687 535.68897496 -348.43714158 472.21933424 -357.125 406.375 C-357.21293823 405.72343933 -357.30087646 405.07187866 -357.39147949 404.40057373 C-359.28116681 390.03005455 -359.52387969 375.72968376 -359.5 361.25 C-359.49978851 360.06412292 -359.49957703 358.87824585 -359.49935913 357.65643311 C-359.4649348 338.26297179 -358.49494124 319.48965852 -355.125 300.375 C-354.93776367 299.2931543 -354.75052734 298.21130859 -354.55761719 297.09667969 C-340.0060409 215.59277313 -295.58669799 133.34196195 -229.125 82.375 C-228.02572576 81.47883041 -226.92958578 80.57880795 -225.8359375 79.67578125 C-174.43897496 37.39967313 -110.96933424 11.06285842 -45.125 2.375 C-44.47343933 2.28706177 -43.82187866 2.19912354 -43.15057373 2.10852051 C-28.78005455 0.21883319 -14.47968376 -0.02387969 0 0 Z M-48.125 24.375 C-48.87072266 24.49246582 -49.61644531 24.60993164 -50.38476562 24.73095703 C-54.27841242 25.36243374 -58.14106321 26.10430585 -61.99853516 26.92724609 C-64.42588755 27.43835566 -66.85911333 27.91537011 -69.29296875 28.39453125 C-127.57814886 40.14892898 -182.2106484 68.20099372 -225.98046875 108.4140625 C-227.93134883 110.19792734 -229.92248048 111.91452794 -231.9375 113.625 C-240.64963075 121.24370543 -248.72519095 129.51875335 -255.90234375 138.59765625 C-257.85861702 141.04213831 -259.88613526 143.40083379 -261.95239258 145.75219727 C-303.12725421 192.98762011 -328.80160653 256.51078751 -336.125 318.375 C-336.20544556 319.01734589 -336.28589111 319.65969177 -336.36877441 320.32150269 C-337.9123489 332.76836744 -338.45445634 345.02631688 -338.375 357.5625 C-338.37156586 358.45674683 -338.36813171 359.35099365 -338.36459351 360.27233887 C-338.25603136 384.47927197 -335.76822036 407.59470311 -331.125 431.375 C-330.94630371 432.30344727 -330.76760742 433.23189453 -330.58349609 434.18847656 C-319.3700148 490.76118853 -289.92325776 544.95221307 -251.08984375 587.2265625 C-249.28503556 589.20001082 -247.54548535 591.21363832 -245.8125 593.25 C-238.55774078 601.5676658 -230.55412972 609.26148762 -222.125 616.375 C-221.21878906 617.17035156 -220.31257813 617.96570313 -219.37890625 618.78515625 C-181.5226655 651.8085564 -134.6720055 675.90479932 -86.125 688.375 C-85.03541992 688.66117188 -83.94583984 688.94734375 -82.82324219 689.2421875 C-41.84463366 699.88775441 0.79321388 702.8684719 42.875 697.375 C43.8659668 697.24609375 44.85693359 697.1171875 45.87792969 696.984375 C112.16143869 688.00523549 177.21688445 659.34879383 226.44140625 613.625 C228.48504149 611.73553949 230.56304318 609.92158082 232.6875 608.125 C241.69817999 600.28719778 250.28164054 591.59100681 257.875 582.375 C258.32133789 581.84245605 258.76767578 581.30991211 259.22753906 580.76123047 C285.50125654 549.38199482 305.20319027 514.5460303 319.875 476.375 C320.45273731 474.92302276 321.03080755 473.4711779 321.609375 472.01953125 C330.12013693 450.01056251 334.98023478 425.71848139 337.875 402.375 C337.99069336 401.47668457 338.10638672 400.57836914 338.22558594 399.65283203 C348.863318 313.02002593 323.87001057 223.91606234 270.86328125 154.75 C268.89888379 152.26362268 266.89842106 149.81357769 264.875 147.375 C263.62783203 145.86679688 263.62783203 145.86679688 262.35546875 144.328125 C223.1233666 97.24106442 174.09381532 63.24387217 116.875 41.375 C116.06095703 41.05950195 115.24691406 40.74400391 114.40820312 40.41894531 C93.26726032 32.28277202 71.17636887 27.95998751 48.875 24.375 C48.07529785 24.24609375 47.2755957 24.1171875 46.45166016 23.984375 C30.40576574 21.46325247 14.15003731 21.14041477 -2.0625 21.125 C-2.90684601 21.12366058 -3.75119202 21.12232117 -4.62112427 21.12094116 C-19.30505169 21.12595481 -33.60506374 22.04202765 -48.125 24.375 Z " fill="#EB9A10" transform="translate(383.125,23.625)"/>
<path d="M0 0 C1.607043 -0.02409439 1.607043 -0.02409439 3.24655151 -0.04867554 C8.15069093 -0.09291571 13.05469235 -0.13418417 17.95898438 -0.15722656 C20.55087246 -0.1738058 23.14271447 -0.20112119 25.734375 -0.23925781 C29.45873895 -0.29382551 33.18202925 -0.31587011 36.90673828 -0.33056641 C38.06930145 -0.35323578 39.23186462 -0.37590515 40.42965698 -0.39926147 C42.04615646 -0.39498642 42.04615646 -0.39498642 43.6953125 -0.390625 C45.11975174 -0.40275528 45.11975174 -0.40275528 46.57296753 -0.41513062 C48.97705078 0.19287109 48.97705078 0.19287109 50.72120667 2.51034546 C52.28776303 5.856563 53.56511823 9.2647286 54.76220703 12.75537109 C55.01916855 13.49021225 55.27613007 14.22505341 55.5408783 14.98216248 C56.37917674 17.38388774 57.20945647 19.78829926 58.03955078 22.19287109 C58.62569752 23.87800205 59.21229105 25.56297765 59.79931641 27.24780273 C61.26460889 31.45804423 62.72318406 35.67057326 64.17901611 39.88409424 C64.90194237 41.97557658 65.6262932 44.06655579 66.3515625 46.15722656 C68.78114457 53.16237878 71.19363134 60.17322011 73.59814453 67.18701172 C74.89527397 70.96243151 76.20611103 74.73302841 77.51782227 78.50340271 C78.71417948 81.94559651 79.90507322 85.38966779 81.09521484 88.83401489 C81.67562789 90.50999373 82.25825207 92.18520872 82.84326172 93.85958862 C85.77180697 102.2458292 88.56180368 110.39180318 89.97705078 119.19287109 C91.88651682 115.68242909 93.09364791 112.05449644 94.34033203 108.26318359 C94.56871765 107.57246262 94.79710327 106.88174164 95.03240967 106.17008972 C95.52772131 104.67170869 96.0217634 103.17290753 96.51467896 101.67373657 C97.84399186 97.63218767 99.18369861 93.59409284 100.52392578 89.55615234 C100.94285851 88.29344765 100.94285851 88.29344765 101.37025452 87.00523376 C105.07217748 75.86881231 108.88799599 64.77133073 112.69897461 53.671875 C113.09232498 52.52616028 113.09232498 52.52616028 113.49362183 51.3572998 C113.99775569 49.8889161 114.50200387 48.42057164 115.00637817 46.95227051 C116.48630303 42.639343 117.94129418 38.31902178 119.37475586 33.99047852 C120.30633041 31.2101042 121.29599605 28.45160724 122.28955078 25.69287109 C123.74307126 21.65040532 125.18560572 17.60531189 126.59814453 13.54833984 C126.86908936 12.77232422 127.14003418 11.99630859 127.41918945 11.19677734 C127.95158322 9.67022792 128.48174875 8.14289929 129.00952148 6.61474609 C130.86556016 1.30436172 130.86556016 1.30436172 131.97705078 0.19287109 C133.62896474 0.094186 135.28508295 0.06488273 136.93994141 0.06347656 C138.52663635 0.05874832 138.52663635 0.05874832 140.14538574 0.05392456 C141.87190369 0.05696091 141.87190369 0.05696091 143.63330078 0.06005859 C145.39220642 0.0586235 145.39220642 0.0586235 147.18664551 0.05715942 C149.6716314 0.05647739 152.15661907 0.05833326 154.64160156 0.0625 C158.46048966 0.0678479 162.27926013 0.06255574 166.09814453 0.05615234 C168.50569688 0.05681312 170.91324915 0.05809428 173.32080078 0.06005859 C174.47181274 0.05803436 175.62282471 0.05601013 176.80871582 0.05392456 C177.86651245 0.05707672 178.92430908 0.06022888 180.01416016 0.06347656 C181.41861389 0.06466995 181.41861389 0.06466995 182.85144043 0.06588745 C184.97705078 0.19287109 184.97705078 0.19287109 185.97705078 1.19287109 C186.07398778 3.34446835 186.09891862 5.49931221 186.0973053 7.65309143 C186.09858694 8.67730293 186.09858694 8.67730293 186.09989446 9.72220558 C186.10155121 12.026988 186.09602475 14.33169881 186.09057617 16.63647461 C186.09029432 18.28192137 186.090452 19.92736826 186.09101868 21.57281494 C186.09130671 26.05402869 186.085409 30.53521591 186.07844472 35.01642346 C186.0722122 39.69429215 186.07160746 44.37216137 186.07041931 49.05003357 C186.06730569 57.91462278 186.0590919 66.77919972 186.04906982 75.64378351 C186.03790963 85.73309312 186.03239847 95.8224033 186.02737439 105.91171753 C186.0169093 126.67211043 185.99856345 147.4324865 185.97705078 168.19287109 C173.76705078 168.19287109 161.55705078 168.19287109 148.97705078 168.19287109 C148.97705078 123.64287109 148.97705078 79.09287109 148.97705078 33.19287109 C147.65705078 39.46287109 146.33705078 45.73287109 144.97705078 52.19287109 C142.62130849 59.79014 140.04623834 67.13261565 137.00830078 74.47021484 C135.41067661 78.68818473 134.14392633 83.00318309 132.83032227 87.31640625 C131.71160933 90.95361365 130.51915146 94.49976119 129.03955078 98.00537109 C126.68666655 103.61609503 124.98800713 109.42338854 123.19262695 115.22973633 C121.64515948 120.19389425 119.93350258 125.00559319 117.91064453 129.79833984 C116.35406348 133.79074229 115.19784096 137.90405343 114.00439453 142.01708984 C112.87181739 145.51817432 111.42714197 148.8117724 109.97705078 152.19287109 C109.04750856 154.80063512 108.19614735 157.43137195 107.35205078 160.06787109 C105.11047775 167.05944413 105.11047775 167.05944413 103.97705078 168.19287109 C101.68553661 168.28078084 99.39132554 168.29981148 97.09814453 168.29052734 C96.06815086 168.28840492 96.06815086 168.28840492 95.01734924 168.28623962 C92.81637277 168.28062589 90.61549669 168.26807116 88.41455078 168.25537109 C86.92561995 168.25035786 85.43668754 168.24579465 83.94775391 168.24169922 C80.29082003 168.23065202 76.6339452 168.21337822 72.97705078 168.19287109 C72.68983154 167.35626953 72.4026123 166.51966797 72.10668945 165.65771484 C71.02848129 162.51889729 69.94926306 159.38043067 68.86938477 156.2421875 C68.40446866 154.89043626 67.93994178 153.53855108 67.47583008 152.18652344 C66.80411379 150.22994188 66.13094387 148.27386533 65.45751953 146.31787109 C65.05428467 145.14482422 64.6510498 143.97177734 64.2355957 142.76318359 C63.11381856 139.58086178 61.94386655 136.42351252 60.75236511 133.26705933 C59.40192305 129.65423943 58.11604867 126.01855003 56.82470703 122.38427734 C56.21249878 120.66617302 55.60027482 118.94807429 54.98803711 117.22998047 C54.00499537 114.46870773 53.02244697 111.70726117 52.0406189 108.94555664 C48.56908189 99.18300597 45.08749813 89.42661069 41.46142578 79.72021484 C36.36438338 66.0485768 31.41355402 52.63908885 28.97705078 38.19287109 C28.64705078 36.54287109 28.31705078 34.89287109 27.97705078 33.19287109 C27.97705078 77.74287109 27.97705078 122.29287109 27.97705078 168.19287109 C17.08705078 168.19287109 6.19705078 168.19287109 -5.02294922 168.19287109 C-6.87975843 166.33606188 -6.14916775 163.25703912 -6.14993286 160.77734375 C-6.15149285 160.0993252 -6.15305284 159.42130665 -6.15466011 158.72274208 C-6.15867213 156.43411762 -6.15547969 154.14555864 -6.15234375 151.85693359 C-6.1536977 150.22296103 -6.1554776 148.58898877 -6.15765381 146.95501709 C-6.16222887 142.5047303 -6.16043828 138.05446659 -6.15727472 133.60417938 C-6.1547515 128.9574731 -6.15708855 124.31076886 -6.15866089 119.6640625 C-6.16048269 111.85920861 -6.15807599 104.05436417 -6.15332031 96.24951172 C-6.14787767 87.21259873 -6.14964032 78.1757083 -6.15514672 69.13879585 C-6.15967754 61.39444853 -6.16032855 53.65010803 -6.15770805 45.90575981 C-6.1561451 41.27402247 -6.15595199 36.64229575 -6.15924454 32.01055908 C-6.1621228 27.65713693 -6.16014839 23.30374399 -6.15435028 18.95032501 C-6.15302244 17.34786274 -6.1534172 15.74539803 -6.15561295 14.14293671 C-6.15832352 11.96472352 -6.1549445 9.78660547 -6.14993286 7.60839844 C-6.14955584 6.38647797 -6.14917881 5.1645575 -6.14879036 3.90560913 C-5.935034 -0.70230361 -4.14528291 0.05623215 0 0 Z " fill="#EE990D" transform="translate(294.02294921875,351.80712890625)"/>
<path d="M0 0 C1.18587708 0.00021149 2.37175415 0.00042297 3.59356689 0.00064087 C22.98702821 0.0350652 41.76034148 1.00505876 60.875 4.375 C61.9568457 4.56223633 63.03869141 4.74947266 64.15332031 4.94238281 C145.65722687 19.4939591 227.90803805 63.91330201 278.875 130.375 C279.77116959 131.47427424 280.67119205 132.57041422 281.57421875 133.6640625 C323.85032687 185.06102504 350.18714158 248.53066576 358.875 314.375 C358.96293823 315.02656067 359.05087646 315.67812134 359.14147949 316.34942627 C361.03116681 330.71994545 361.27387969 345.02031624 361.25 359.5 C361.24978851 360.68587708 361.24957703 361.87175415 361.24935913 363.09356689 C361.2149348 382.48702821 360.24494124 401.26034148 356.875 420.375 C356.68776367 421.4568457 356.50052734 422.53869141 356.30761719 423.65332031 C341.7560409 505.15722687 297.33669799 587.40803805 230.875 638.375 C229.77572576 639.27116959 228.67958578 640.17119205 227.5859375 641.07421875 C176.18897496 683.35032687 112.71933424 709.68714158 46.875 718.375 C46.22343933 718.46293823 45.57187866 718.55087646 44.90057373 718.64147949 C30.53005455 720.53116681 16.22968376 720.77387969 1.75 720.75 C0.56412292 720.74978851 -0.62175415 720.74957703 -1.84356689 720.74935913 C-21.23702821 720.7149348 -40.01034148 719.74494124 -59.125 716.375 C-60.2068457 716.18776367 -61.28869141 716.00052734 -62.40332031 715.80761719 C-143.90722687 701.2560409 -226.15803805 656.83669799 -277.125 590.375 C-278.02116959 589.27572576 -278.92119205 588.17958578 -279.82421875 587.0859375 C-322.10032687 535.68897496 -348.43714158 472.21933424 -357.125 406.375 C-357.21293823 405.72343933 -357.30087646 405.07187866 -357.39147949 404.40057373 C-359.28116681 390.03005455 -359.52387969 375.72968376 -359.5 361.25 C-359.49978851 360.06412292 -359.49957703 358.87824585 -359.49935913 357.65643311 C-359.4649348 338.26297179 -358.49494124 319.48965852 -355.125 300.375 C-354.93776367 299.2931543 -354.75052734 298.21130859 -354.55761719 297.09667969 C-340.0060409 215.59277313 -295.58669799 133.34196195 -229.125 82.375 C-228.02572576 81.47883041 -226.92958578 80.57880795 -225.8359375 79.67578125 C-174.43897496 37.39967313 -110.96933424 11.06285842 -45.125 2.375 C-44.47343933 2.28706177 -43.82187866 2.19912354 -43.15057373 2.10852051 C-28.78005455 0.21883319 -14.47968376 -0.02387969 0 0 Z M-213.41796875 82.00585938 C-214.93374194 83.22159966 -216.46576994 84.41701142 -218 85.609375 C-223.41311451 89.83837071 -228.50115003 94.36429243 -233.55078125 99.01953125 C-235.64611166 100.93680627 -237.77045875 102.79063885 -239.9375 104.625 C-249.00378377 112.53467967 -257.48072761 121.18195782 -264.93359375 130.625 C-266.89747653 133.08948036 -268.93027405 135.47491065 -271.00024414 137.8503418 C-300.10050255 171.44664439 -322.59740683 213.79003665 -335.125 256.375 C-335.46990479 257.54530762 -335.46990479 257.54530762 -335.82177734 258.73925781 C-345.45396914 291.7799884 -350.49228366 324.79909568 -350.5 359.1875 C-350.50190338 360.09213989 -350.50380676 360.99677979 -350.50576782 361.92883301 C-350.50128553 380.68358595 -348.70976078 399.11712882 -345.75 417.625 C-345.5540625 418.9140625 -345.358125 420.203125 -345.15625 421.53125 C-342.65831326 437.4042151 -338.70222189 452.60014968 -333.5625 467.8125 C-333.30210937 468.58814301 -333.04171875 469.36378601 -332.7734375 470.16293335 C-319.82013924 508.61263379 -301.70386218 544.71346682 -276.125 576.375 C-275.29394755 577.41901358 -274.46319603 578.4632668 -273.6328125 579.5078125 C-269.33339596 584.84861021 -264.84685444 589.98983139 -260.2265625 595.0546875 C-258.40217206 597.06897731 -256.63406198 599.11648614 -254.875 601.1875 C-247.30422668 609.87006521 -238.93483044 617.96303933 -230.125 625.375 C-229.22007812 626.1690625 -228.31515625 626.963125 -227.3828125 627.78125 C-180.68212766 668.52109886 -121.8589831 695.33443728 -61.125 706.375 C-59.87348145 706.60461426 -59.87348145 706.60461426 -58.59667969 706.83886719 C-53.12274441 707.82306969 -47.6384337 708.6464844 -42.125 709.375 C-41.3736377 709.47941406 -40.62227539 709.58382812 -39.84814453 709.69140625 C45.12274222 721.0280329 135.76407315 696.23539231 204.875 646.375 C205.76566162 645.73304688 205.76566162 645.73304688 206.67431641 645.078125 C216.70236476 637.8000363 226.25470825 629.96658111 235.41015625 621.62109375 C237.05392647 620.12320488 238.70765156 618.63616833 240.37109375 617.16015625 C249.10459078 609.40764485 257.31830314 601.27998718 264.875 592.375 C265.66132812 591.4778125 266.44765625 590.580625 267.2578125 589.65625 C284.35348797 570.01962667 298.69789905 548.35125305 310.875 525.375 C311.22127441 524.72241211 311.56754883 524.06982422 311.92431641 523.39746094 C351.79850683 447.53734828 361.25624086 361.95862954 336.92480469 256.63598633 C323.36905262 214.06793556 302.45576507 173.81984071 273.875 139.375 C272.62783203 137.86679688 272.62783203 137.86679688 271.35546875 136.328125 C259.22528872 121.76882857 246.357059 107.63302851 231.875 95.375 C230.9675 94.57835938 230.06 93.78171875 229.125 92.9609375 C155.8403727 29.05129138 53.28661061 -0.90920668 -213.41796875 82.00585938 Z " fill="#1C2B49" transform="translate(383.125,23.625)"/>
<path d="M0 0 C4.00225225 1.33408408 4.48069831 3.02759962 6.57421875 6.64453125 C6.90291458 7.21072678 7.23161041 7.7769223 7.57026672 8.36027527 C8.2629745 9.55898761 8.95111581 10.76034872 9.63500977 11.96411133 C10.68171716 13.80234414 11.74683813 15.62892698 12.81445312 17.45507812 C13.48551221 18.62174246 14.15547108 19.78904045 14.82421875 20.95703125 C15.43354248 22.01897705 16.04286621 23.08092285 16.6706543 24.17504883 C18 27 18 27 18 31 C16.56298828 33.93261719 16.56298828 33.93261719 14.5703125 37.296875 C14.21991913 37.89050842 13.86952576 38.48414185 13.5085144 39.09576416 C12.7679131 40.34551214 12.02294663 41.59268227 11.27392578 42.83740234 C10.12472824 44.7504524 8.99321708 46.67318057 7.86328125 48.59765625 C7.14165687 49.81051037 6.41903484 51.02277158 5.6953125 52.234375 C5.03547363 53.34006836 4.37563477 54.44576172 3.69580078 55.58496094 C3.13618652 56.38192383 2.57657227 57.17888672 2 58 C1.34 58 0.68 58 0 58 C-1.42787172 56.04501139 -2.71688092 54.10734436 -3.984375 52.05078125 C-4.36362122 51.44115036 -4.74286743 50.83151947 -5.13360596 50.20341492 C-5.93439168 48.90867222 -6.73105128 47.61137 -7.52392578 46.31176758 C-8.74126694 44.32674035 -9.9849475 42.36000843 -11.23046875 40.39257812 C-12.00429184 39.13384847 -12.77648199 37.87411317 -13.546875 36.61328125 C-14.11072906 35.73329216 -14.11072906 35.73329216 -14.68597412 34.83552551 C-16.30778853 32.11572271 -17.13650692 30.61187079 -16.43310547 27.45898438 C-15.96018066 26.64751953 -15.48725586 25.83605469 -15 25 C-14.47067871 24.05535889 -13.94135742 23.11071777 -13.39599609 22.13745117 C-12.77805176 21.11627197 -12.16010742 20.09509277 -11.5234375 19.04296875 C-10.853125 17.93115234 -10.1828125 16.81933594 -9.4921875 15.67382812 C-8.78653878 14.5116699 -8.0808086 13.34956113 -7.375 12.1875 C-6.66111835 11.00606474 -5.94757321 9.82442608 -5.234375 8.64257812 C-3.49288205 5.75970129 -1.74798618 2.87894276 0 0 Z " fill="#AF7920" transform="translate(383,316)"/>
<path d="M0 0 C0.33 0 0.66 0 1 0 C0.67 44.55 0.34 89.1 0 135 C-0.33 135 -0.66 135 -1 135 C-1.33 101.01 -1.66 67.02 -2 32 C-2.66 32.99 -3.32 33.98 -4 35 C-6 35 -6 35 -7.7578125 33.42578125 C-9 31 -9 31 -8.3046875 27.85546875 C-7.83289063 26.64503906 -7.36109375 25.43460937 -6.875 24.1875 C-4.37490255 17.46994843 -2.83325598 10.90072835 -1.578125 3.8515625 C-1 1 -1 1 0 0 Z " fill="#805C2A" transform="translate(443,384)"/>
<path d="M0 0 C0.99 0.495 0.99 0.495 2 1 C2.7132515 3.9399148 3.32210776 6.84197104 3.875 9.8125 C5.21906536 16.66389243 6.84085742 23.18447547 9.265625 29.75 C10 32 10 32 10 35 C9.34 35 8.68 35 8 35 C5.525 31.04 5.525 31.04 3 27 C2.67 62.64 2.34 98.28 2 135 C1.67 135 1.34 135 1 135 C0.67 90.45 0.34 45.9 0 0 Z " fill="#81612D" transform="translate(321,384)"/>
</svg>
